<svg aria-hidden="true" style="position: absolute; width: 0; height: 0; overflow: hidden;" version="1.1" xmlns="http://www.w3.org/2000/svg" xmlns:xlink="http://www.w3.org/1999/xlink">
<defs>
<symbol id="Amazon" viewBox="0 0 48 32">
<path fill="#f90" style="fill: var(--color1, #f90)" d="M28.445 19.138c-2.146 1.582-5.256 2.425-7.933 2.425-3.755 0-7.135-1.389-9.692-3.698-0.201-0.182-0.021-0.429 0.22-0.288 2.76 1.606 6.172 2.572 9.696 2.572 2.377 0 4.992-0.492 7.396-1.512 0.363-0.154 0.667 0.238 0.312 0.501z"></path>
<path fill="#f90" style="fill: var(--color1, #f90)" d="M29.337 18.118c-0.273-0.35-1.813-0.166-2.504-0.084-0.211 0.026-0.243-0.157-0.053-0.289 1.226-0.863 3.239-0.614 3.473-0.325 0.235 0.291-0.061 2.308-1.213 3.271-0.177 0.148-0.346 0.069-0.267-0.127 0.259-0.646 0.839-2.094 0.564-2.446z"></path>
<path fill="#000" style="fill: var(--color2, #000)" d="M26.881 11.652c0 0.125 0.096 0.211 0.217 0.211h1.962l-2.255 3.234c-0.137 0.207-0.138 0.44-0.138 0.577v0.85c0 0.122 0.137 0.264 0.267 0.193 1.278-0.678 2.813-0.612 3.968-0.006 0.141 0.074 0.276-0.069 0.276-0.191v-0.895c-0.011-0.121-0.051-0.243-0.199-0.326-0.656-0.37-1.419-0.477-2.142-0.46l1.946-2.779c0.18-0.249 0.281-0.407 0.283-0.527v-0.718c0-0.125-0.096-0.212-0.217-0.212h-3.756c-0.116 0-0.212 0.085-0.212 0.212v0.839zM13.179 16.886h-1.143c-0.109-0.008-0.196-0.090-0.204-0.194v-5.865c0-0.117 0.098-0.211 0.22-0.211h1.066c0.111 0.005 0.199 0.090 0.207 0.196v0.767h0.021c0.278-0.741 0.8-1.086 1.504-1.086 0.715 0 1.162 0.346 1.483 1.086 0.276-0.741 0.905-1.086 1.578-1.086 0.479 0 1.003 0.198 1.323 0.641 0.362 0.493 0.288 1.21 0.288 1.839l-0.002 3.701c0 0.117-0.098 0.212-0.22 0.212h-1.141c-0.114-0.008-0.206-0.1-0.206-0.212v-3.108c0-0.248 0.023-0.865-0.032-1.099-0.085-0.394-0.341-0.505-0.672-0.505-0.276 0-0.566 0.185-0.683 0.481s-0.106 0.791-0.106 1.123v3.108c0 0.117-0.098 0.212-0.22 0.212h-1.141c-0.116-0.008-0.206-0.1-0.206-0.212l-0.002-3.108c0-0.654 0.108-1.617-0.704-1.617-0.821 0-0.789 0.939-0.789 1.617v3.108c0 0.117-0.098 0.212-0.22 0.212zM34.3 10.493c1.696 0 2.613 1.456 2.613 3.308 0 1.789-1.014 3.208-2.613 3.208-1.665 0-2.572-1.456-2.572-3.271 0-1.826 0.918-3.245 2.572-3.245zM34.31 11.69c-0.842 0-0.895 1.148-0.895 1.863 0 0.717-0.011 2.247 0.886 2.247 0.886 0 0.927-1.234 0.927-1.987 0-0.495-0.021-1.086-0.17-1.556-0.129-0.408-0.384-0.567-0.747-0.567zM39.112 16.886h-1.138c-0.114-0.008-0.206-0.1-0.206-0.212l-0.002-5.866c0.010-0.108 0.105-0.191 0.22-0.191h1.059c0.1 0.005 0.182 0.072 0.204 0.164v0.897h0.021c0.32-0.802 0.768-1.185 1.557-1.185 0.513 0 1.013 0.185 1.334 0.691 0.299 0.469 0.299 1.258 0.299 1.826v3.692c-0.013 0.103-0.108 0.185-0.22 0.185h-1.146c-0.105-0.008-0.191-0.085-0.203-0.185v-3.186c0-0.641 0.074-1.58-0.715-1.58-0.278 0-0.534 0.186-0.661 0.469-0.161 0.358-0.182 0.715-0.182 1.111v3.158c-0.002 0.117-0.101 0.212-0.223 0.212zM23.887 14.085c0 0.445 0.011 0.816-0.214 1.212-0.182 0.322-0.471 0.519-0.791 0.519-0.439 0-0.696-0.334-0.696-0.828 0-0.974 0.873-1.151 1.7-1.151v0.248zM25.039 16.87c-0.076 0.067-0.185 0.072-0.27 0.027-0.379-0.315-0.448-0.461-0.656-0.762-0.627 0.64-1.072 0.831-1.884 0.831-0.963 0-1.71-0.593-1.71-1.781 0-0.927 0.501-1.559 1.218-1.868 0.62-0.273 1.487-0.321 2.149-0.397v-0.148c0-0.272 0.021-0.593-0.14-0.828-0.138-0.211-0.405-0.297-0.641-0.297-0.436 0-0.823 0.223-0.918 0.686-0.019 0.103-0.095 0.204-0.199 0.209l-1.107-0.119c-0.093-0.021-0.198-0.096-0.17-0.239 0.254-1.344 1.469-1.749 2.556-1.749 0.556 0 1.283 0.148 1.721 0.569 0.556 0.519 0.503 1.212 0.503 1.966v1.781c0 0.535 0.222 0.77 0.431 1.059 0.072 0.103 0.088 0.227-0.005 0.304-0.233 0.194-0.648 0.556-0.876 0.759l-0.002-0.003zM8.906 14.085c0 0.445 0.011 0.816-0.214 1.212-0.182 0.322-0.469 0.519-0.791 0.519-0.439 0-0.694-0.334-0.694-0.828 0-0.974 0.873-1.151 1.699-1.151v0.248zM10.058 16.87c-0.075 0.067-0.185 0.072-0.27 0.027-0.379-0.315-0.447-0.461-0.656-0.762-0.627 0.64-1.070 0.831-1.884 0.831-0.961 0-1.71-0.593-1.71-1.781 0-0.927 0.503-1.559 1.218-1.868 0.62-0.273 1.487-0.321 2.149-0.397v-0.148c0-0.272 0.021-0.593-0.138-0.828-0.14-0.211-0.407-0.297-0.641-0.297-0.436 0-0.825 0.223-0.919 0.686-0.019 0.103-0.095 0.204-0.198 0.209l-1.109-0.119c-0.093-0.021-0.196-0.096-0.17-0.239 0.256-1.344 1.469-1.749 2.556-1.749 0.556 0 1.283 0.148 1.721 0.569 0.556 0.519 0.503 1.212 0.503 1.966v1.781c0 0.535 0.222 0.77 0.431 1.059 0.074 0.103 0.090 0.227-0.003 0.304-0.233 0.194-0.648 0.556-0.876 0.759l-0.003-0.003z"></path>
</symbol>
<symbol id="Boots" viewBox="0 0 32 32">
<path fill="#1e1c59" style="fill: var(--color4, #1e1c59)" d="M30.684 14.683c-0.019-0.801-0.418-1.567-1.101-1.926 0.15-0.216 0.404-0.614 0.653-1.017l0.118-0.205c0.258 0.521 0.639 1.083 0.639 1.823 0 0.47-0.11 0.932-0.31 1.325zM30.024 15.482c-0.289 0.211-0.632 0.334-1.017 0.334-0.514 0-0.951-0.211-1.223-0.575 0.515-0.627 1.026-1.331 1.506-2.044 0.561 0.315 0.789 1.043 0.789 1.701-0 0.204-0.018 0.399-0.056 0.583zM27.533 14.691c-0.028-0.124-0.042-0.256-0.042-0.394 0-0.698 0.496-1.261 1.153-1.261 0.044 0 0.087 0.002 0.127 0.005-0.418 0.592-0.836 1.155-1.238 1.649zM19.876 17.848c-0.225 0-0.327-0.183-0.327-0.517 0-1.081 0.961-3.349 2.504-4.681 0.171 0.282 0.247 0.641 0.249 1.015 0.006 1.787-1.63 4.183-2.426 4.183zM13.759 19.175c-0.218 0-0.327-0.188-0.327-0.509 0-1.396 2.372-5.964 3.565-5.964 0.225 0 0.327 0.188 0.327 0.515 0 1.411-2.358 5.957-3.565 5.957zM10.301 14.404c-0.291-0.315-0.608-0.571-0.935-0.77 0.812-1.668 1.712-3.244 2.839-4.446 0.383 0.395 0.59 0.935 0.59 1.581-0 1.605-1.059 3.014-2.494 3.634zM5.811 22.16c-0.313 0-0.599-0.042-0.855-0.117 1.405-1.581 2.452-4.113 3.596-6.655 0.481 0.016 0.942-0.044 1.351-0.117 0.228 0.482 0.369 1.073 0.369 1.775 0 2.297-1.689 5.114-4.461 5.114zM3.939 21.477c-0.451-0.423-0.674-0.97-0.669-1.425 0.004-0.227 0.064-0.435 0.162-0.616 0.144 0.317 0.496 0.557 0.923 0.557 0.169-0.001 0.329-0.035 0.475-0.097l-0.008 0.003c-0.289 0.59-0.58 1.123-0.883 1.578zM6.968 13.927c0-0.308 0.373-0.362 0.77-0.315-0.066 0.109-0.205 0.372-0.34 0.638l-0.076 0.166c-0.225-0.139-0.354-0.312-0.354-0.489zM9.090 14.212c0.159 0.133 0.3 0.276 0.425 0.433l0.005 0.006c-0.198 0.044-0.429 0.074-0.665 0.083l-0.007 0c0.080-0.174 0.16-0.35 0.242-0.522zM30.637 11.116c0.268-0.307 0.435-0.69 0.435-0.972 0-0.191-0.111-0.313-0.291-0.313-0.298 0-0.657 0.367-0.657 0.921 0 0.078 0.010 0.155 0.024 0.232-0.341 0.535-0.697 1.076-1.057 1.599-0.117-0.024-0.251-0.038-0.388-0.038h-0c-0.865 0-1.757 0.649-1.757 1.823 0 0.319 0.056 0.599 0.152 0.841-0.742 0.845-1.393 1.391-1.834 1.391-0.174 0-0.279-0.094-0.279-0.291 0-0.211 0.103-0.545 0.307-1.010l2.544-5.637 2.748-0.324 0.312-0.651-2.659 0.087 0.461-1.021-1.031 0.129-0.468 0.925-3.72 0.12-0.669 1.327 3.89-0.458-0.782 1.552c-0.401-0.179-0.884-0.282-1.449-0.282-0.851 0-1.642 0.211-2.354 0.568-0.322-0.157-0.686-0.233-1.057-0.233-0.899 0-1.916 0.432-2.743 1.189-0.167-0.515-0.517-0.825-1.036-0.825-0.604 0-1.247 0.317-1.861 0.831-0.367-0.301-0.9-0.388-1.459-0.176 0.301-0.563 0.467-1.161 0.467-1.757 0-1.040-0.488-1.804-1.377-2.265 0.305-0.247 0.625-0.468 0.965-0.658-0.125-0.099-0.204-0.16-0.308-0.218-0.488 0.2-0.901 0.412-1.293 0.654l0.038-0.022c-0.561-0.179-1.229-0.27-1.994-0.27-3.551 0-6.91 2.050-6.91 4.582 0 1.118 0.632 1.517 1.257 1.517 0.583 0 1.155-0.327 1.336-0.724-0.509-0.104-0.81-0.545-0.81-1.104 0-1.971 2.389-3.697 4.841-3.697 0.548 0 1.024 0.103 1.414 0.291-1.489 1.146-2.631 2.706-3.575 4.374-0.119-0.019-0.256-0.031-0.396-0.031h-0.001c-0.705 0-1.214 0.303-1.214 0.888 0 0.397 0.259 0.738 0.655 0.986-0.582 1.214-1.093 2.429-1.583 3.535-0.171-0.336-0.557-0.556-1.007-0.556-1.080 0-1.891 0.951-1.891 2.126 0 0.768 0.312 1.501 0.848 2.088-0.507 0.566-1.060 0.902-1.708 0.918-0.010 0-0.022 0.001-0.034 0.001-0.209 0-0.404-0.056-0.572-0.155l0.005 0.003c0.507-0.056 0.923-0.432 0.911-0.921s-0.42-0.836-0.979-0.824c-0.684 0.016-1.055 0.589-1.043 1.090 0.021 0.93 0.81 1.417 1.839 1.393 0.89-0.021 1.654-0.338 2.335-0.872 0.646 0.414 1.454 0.667 2.358 0.667 2.731 0 5.048-2.327 5.048-5.449 0-1.242-0.32-2.224-0.798-2.976 0.886-0.312 1.665-0.81 2.271-1.411 0.85-0.843 1.482-0.764 1.841-0.536-1.409 1.463-2.553 3.822-2.553 5.409 0 0.982 0.392 1.621 1.148 1.621 2.267 0 4.973-4.371 4.94-6.772 0.728-0.806 1.701-1.287 2.492-1.287 0.15 0 0.286 0.018 0.409 0.051-1.771 1.252-2.875 3.394-2.875 5.041 0 0.874 0.428 1.536 1.264 1.536 1.56 0 3.592-2.429 3.592-4.853 0-0.744-0.211-1.304-0.547-1.698 0.545-0.324 1.144-0.521 1.787-0.521 0.373 0 0.763 0.087 1.113 0.24l-1.562 3.098c-0.364 0.756-0.505 1.316-0.505 1.722 0 0.627 0.366 0.947 0.949 0.947 0.846 0 1.846-0.787 2.842-1.912 0.43 0.533 1.101 0.771 1.656 0.771 0.176 0 0.357-0.018 0.54-0.051-0.42 0.529-1.118 0.928-2.142 1.184l-13.56 3.39c-2.060 0.514-3.319 1.531-2.711 3.478 0.47-0.387 1.316-0.765 3.504-1.432l12.31-3.753c1.801-0.55 2.943-1.84 3.431-3.143 0.84-0.406 1.585-1.184 1.585-2.265-0-1.193-1-1.905-1.364-2.771z"></path>
</symbol>
<symbol id="Superdrug" viewBox="0 0 32 32">
<path fill="#ed018c" style="fill: var(--color5, #ed018c)" d="M30.287 15.422c-0.005-0.003 0.839 0.626 1.139 0.48 0.305-0.148-0.116-1.184-0.121-1.322 0.227-0.213 0.696-0.591 0.696-0.858 0-0.264-0.388-0.318-1.138-0.305-0.122-0.259-0.464-1.025-0.732-1.025-0.286 0-0.501 0.833-0.547 1.044-0.691 0.040-1.219 0.097-1.219 0.407 0 0.27 0.547 0.69 0.869 0.86-0.054 0.305-0.226 1.068-0.030 1.224 0.251 0.197 0.834-0.313 1.084-0.507zM30.149 12.973c0.084 0.234 0.3 0.704 0.456 0.809 0.14 0.094 0.628 0.075 0.907 0.065-0.178 0.167-0.567 0.383-0.639 0.664-0.059 0.229 0.126 0.696 0.215 0.912-0.186-0.143-0.62-0.429-0.787-0.429-0.219 0-0.596 0.356-0.753 0.496 0.040-0.167 0.211-0.699 0.134-0.923s-0.405-0.405-0.752-0.645c0.348-0.040 0.815-0.019 0.944-0.14 0.121-0.113 0.211-0.583 0.275-0.809zM3.523 15.988c0-0.588-0.852-0.645-1.267-0.645-0.488 0-1.010 0.1-1.442 0.266-0.349 0.132-0.814 0.376-0.814 0.814 0 0.571 0.896 0.777 1.663 0.97 0.58 0.146 1.048 0.265 1.048 0.499 0 0.305-0.799 0.276-0.983 0.276-0.754 0-1.226-0.155-1.293-0.155-0.143 0-0.227 0.389-0.078 0.431 0.436 0.128 0.87 0.182 1.287 0.182 1.014 0 1.576-0.212 1.576-0.746 0-0.502-0.597-0.741-1.393-0.936-0.593-0.146-1.315-0.298-1.315-0.528 0-0.2 0.278-0.323 0.488-0.404 0.364-0.143 0.816-0.216 1.223-0.214 0.121 0 0.803-0.003 0.803 0.224 0 0.057-0.046 0.116-0.148 0.175-0.138 0.075 0.038 0.432 0.208 0.359 0.248-0.105 0.437-0.324 0.437-0.571zM26.529 18.074c-0.278-0.068-0.569-0.173-0.569-0.629 0-0.593 0.475-0.792 1.404-0.792 0.411 0 0.777 0.071 1.061 0.282 0.34 0.249 0.38 0.729 0.37 1.114 0.167-0.009 0.445 0 0.582 0 0.146 0 0.165 0.103 0.165 0.191 0 0.101-0.008 0.238-0.144 0.238-0.205 0-0.62-0.008-0.663-0.005-0.151 0.646-0.608 1.133-1.207 1.133-0.375 0-0.728-0.213-0.728-0.619 0-0.571 0.724-0.895 1.49-0.924 0.013-0.2 0.005-0.429-0.073-0.608-0.157-0.349-0.541-0.374-0.945-0.374-0.709 0-0.828 0.11-0.828 0.387 0 0.399 0.694 0.278 0.694 0.581 0 0.272-0.599 0.445-1.059 0.445-0.687 0-1.165-0.304-1.316-0.969-0.219 0.586-0.562 0.961-0.932 0.961-0.666 0-0.926-0.944-1.031-1.627-0.016-0.113 0.027-0.185 0.309-0.201 0.097-0.005 0.17 0.011 0.181 0.088 0.065 0.507 0.254 1.311 0.572 1.311 0.332 0 0.64-0.849 0.766-1.319 0.041-0.126 0.47-0.107 0.477 0.078 0 1.049 0.427 1.409 1.426 1.274zM22.248 16.632c-0.602 0-0.933 0.485-1.171 0.973-0.145 0.294-0.188 0.445-0.231 0.445-0.124 0-0.046-1.276-0.54-1.276-0.523 0-0.861 1.276-1.274 1.276-0.127 0-0.184-0.135-0.184-0.515v-1.693c0-0.108-0.046-0.165-0.257-0.165-0.186 0-0.224 0.089-0.224 0.151v1.018c-0.162-0.124-0.62-0.193-1.001-0.193-0.879 0-1.144 0.38-1.144 0.913 0 0.261 0.075 0.529 0.245 0.68 0.235 0.211 0.594 0.232 0.88 0.235 0.27 0 0.68-0.022 0.793-0.089 0.068-0.041 0.071-0.097 0.071-0.143 0-0.118-0.049-0.262-0.162-0.257-0.073 0.003-0.299 0.057-0.732 0.057-0.448 0-0.586-0.157-0.586-0.543 0-0.29 0.090-0.425 0.715-0.425 0.262 0 0.729 0.014 0.85 0.206 0.051 0.087 0.054 0.176 0.072 0.402 0.047 0.547 0.262 0.788 0.581 0.788 0.659 0 0.908-0.796 1.261-1.206 0.081 0.353 0.070 1.21 0.594 1.21 0.64 0 0.593-1.381 1.427-1.381 0.12 0 0.176 0.011 0.219 0.011 0.14 0 0.173-0.128 0.173-0.27 0-0.177-0.044-0.21-0.376-0.21zM27.539 19.18c0.359 0 0.661-0.341 0.704-0.701-0.41 0.016-0.953 0.163-0.953 0.49 0 0.105 0.087 0.211 0.248 0.211zM13.928 16.777c-0.426 0-0.506 0.75-1.202 1.125-0.262 0.139-0.615 0.19-1.067 0.19-0.725 0-0.894-0.065-0.894-0.545 0-0.1 0.005-0.211 0.064-0.295 0.121-0.169 0.531-0.177 0.744-0.177 0.501 0 0.56 0.049 0.56 0.215 0 0.162-0.049 0.173-0.363 0.178h-0.184c-0.070 0-0.154-0.008-0.154 0.13 0 0.124-0.005 0.186 0.073 0.202 0.040 0.011 0.17 0.019 0.251 0.019 0.665 0 0.884-0.221 0.884-0.551 0-0.426-0.21-0.616-1.11-0.616-0.469 0-1.11 0.066-1.228 0.586-0.028 0.111-0.044 0.239-0.044 0.371 0 0.002 0 0.003 0 0.005v-0c0 0.807 0.696 0.882 1.454 0.882 1.129 0 1.743-0.537 2.123-1.22 0.081 0.354 0.070 1.21 0.593 1.21 0.639 0 0.576-1.381 1.411-1.381 0.038 0 0.089 0.003 0.113 0.003 0.132 0 0.157-0.119 0.157-0.263 0-0.177-0.040-0.209-0.253-0.209-0.603 0-0.918 0.485-1.155 0.973-0.142 0.294-0.185 0.445-0.228 0.445-0.127 0-0.049-1.276-0.542-1.276zM3.644 16.858c0.104 0.683 0.36 1.627 1.026 1.627 0.371 0 0.679-0.318 0.929-0.859 0.092 0.494 0.339 0.859 0.752 0.861 0.63 0.003 0.762-1.002 1.349-1.281 0.267-0.127 0.539-0.121 0.825-0.121 0.735 0 0.856 0.086 0.856 0.472 0 0.129-0.005 0.312-0.118 0.401-0.129 0.1-0.464 0.097-0.646 0.097-0.173 0-0.598-0.035-0.639-0.237-0.011-0.057-0.008-0.075-0.008-0.157 0-0.11-0.113-0.146-0.237-0.146-0.17 0-0.236 0.081-0.236 0.176v1.545c0 0.062 0.030 0.152 0.215 0.152 0.213 0 0.256-0.071 0.256-0.178v-0.882c0.15 0.108 0.358 0.151 0.829 0.154 0.895 0.005 1.094-0.319 1.094-0.91 0-0.391-0.111-0.582-0.218-0.674-0.189-0.159-0.391-0.244-1.172-0.244-0.569 0-0.863 0.104-1.105 0.255-0.552 0.345-0.75 1.163-1.035 1.163-0.362 0-0.411-0.858-0.421-1.258-0.008-0.185-0.433-0.204-0.474-0.078-0.126 0.47-0.434 1.319-0.768 1.319-0.318 0-0.506-0.804-0.571-1.311-0.011-0.077-0.084-0.093-0.181-0.087-0.282 0.016-0.32 0.087-0.304 0.201z"></path>
</symbol>
<symbol id="Tesco" viewBox="0 0 32 32">
<path fill="#333081" style="fill: var(--color6, #333081)" d="M17.616 11.319h-0.017v1.831c0 0.245 0.017 0.333 0.117 0.457h-0.972c0.095-0.124 0.116-0.212 0.116-0.457v-1.819h-0.016c-0.507 0.004-0.976 0.071-1.221 0.237v-0.61h3.211v0.61c-0.249-0.166-0.777-0.245-1.217-0.249z"></path>
<path fill="#333081" style="fill: var(--color6, #333081)" d="M18.296 14.634c-0.108 0.087-0.186 0.162-0.186 0.162-0.216 0.196-0.386 0.316-0.748 0.316h-1.84c0.1-0.055 0.216-0.15 0.312-0.233 0.104-0.087 0.178-0.166 0.178-0.166 0.124-0.125 0.379-0.303 0.694-0.303h1.919c-0.104 0.050-0.229 0.141-0.329 0.224z"></path>
<path fill="#333081" style="fill: var(--color6, #333081)" d="M19.168 13.608c0.087-0.121 0.108-0.212 0.108-0.457v-1.732c0-0.249-0.020-0.336-0.112-0.461h2.31v0.606c-0.237-0.17-0.781-0.233-1.093-0.233h-0.382v0.748h0.287c0.175 0 0.49-0.016 0.686-0.075v0.515c-0.199-0.050-0.511-0.070-0.69-0.070h-0.283v0.78h0.382c0.258 0.005 0.898 0.005 1.25-0.228v0.606h-2.463z"></path>
<path fill="#333081" style="fill: var(--color6, #333081)" d="M21.515 14.634c-0.108 0.087-0.187 0.162-0.187 0.162-0.216 0.196-0.387 0.316-0.747 0.316h-1.841c0.1-0.055 0.216-0.15 0.311-0.233 0.104-0.087 0.179-0.166 0.179-0.166 0.124-0.125 0.378-0.303 0.694-0.303h1.919c-0.104 0.050-0.229 0.141-0.328 0.224z"></path>
<path fill="#333081" style="fill: var(--color6, #333081)" d="M23.271 13.745c-0.491 0-0.943-0.053-1.276-0.162v-0.536c0.441 0.262 0.798 0.337 1.309 0.337 0.282 0 0.656-0.092 0.656-0.341 0-0.182-0.137-0.282-0.324-0.34-0.096-0.034-0.208-0.055-0.324-0.071-0.116-0.021-0.241-0.037-0.365-0.058-0.503-0.079-0.989-0.212-0.989-0.772 0-0.644 0.632-0.843 1.3-0.843 0.362 0 0.835 0.066 1.197 0.178v0.569c-0.291-0.249-0.79-0.382-1.246-0.382-0.279 0-0.619 0.079-0.619 0.332 0 0.163 0.137 0.241 0.323 0.291s0.441 0.074 0.69 0.12c0.502 0.091 0.988 0.254 0.988 0.839 0 0.661-0.627 0.839-1.321 0.839z"></path>
<path fill="#333081" style="fill: var(--color6, #333081)" d="M24.704 14.642c-0.104 0.088-0.183 0.162-0.183 0.162-0.212 0.187-0.378 0.308-0.731 0.308h-1.799c0.1-0.055 0.212-0.145 0.303-0.225 0.1-0.087 0.179-0.162 0.179-0.162 0.12-0.129 0.366-0.298 0.674-0.298h1.877c-0.104 0.050-0.225 0.137-0.32 0.216z"></path>
<path fill="#333081" style="fill: var(--color6, #333081)" d="M26.759 13.737c-1.088 0-1.807-0.536-1.807-1.333 0-0.868 0.785-1.445 1.986-1.445 0.291 0 0.577 0.025 0.806 0.070v0.632c-0.22-0.208-0.498-0.324-0.835-0.324-0.648 0-1.118 0.42-1.118 1.005s0.453 0.997 1.105 0.997c0.324 0 0.631-0.104 0.889-0.362v0.631c-0.361 0.087-0.678 0.129-1.027 0.129z"></path>
<path fill="#333081" style="fill: var(--color6, #333081)" d="M27.976 14.642c-0.104 0.088-0.183 0.158-0.183 0.158-0.212 0.191-0.378 0.312-0.731 0.312h-1.799c0.096-0.055 0.212-0.145 0.303-0.225 0.1-0.092 0.174-0.166 0.174-0.166 0.121-0.125 0.37-0.298 0.677-0.298h1.881c-0.104 0.049-0.224 0.141-0.323 0.22z"></path>
<path fill="#333081" style="fill: var(--color6, #333081)" d="M29.772 13.737c-0.972 0-1.62-0.544-1.62-1.358 0-0.831 0.723-1.42 1.753-1.42 0.968 0 1.616 0.552 1.616 1.37 0 0.831-0.71 1.408-1.749 1.408zM29.905 10.958c-1.030 0-1.753 0.589-1.753 1.42 0 0.814 0.648 1.358 1.62 1.358 1.039 0 1.749-0.577 1.749-1.408 0-0.818-0.648-1.37-1.616-1.37zM29.834 13.363c-0.561 0-0.919-0.457-0.919-1.018s0.358-1.022 0.919-1.022c0.552 0 0.918 0.461 0.918 1.022s-0.365 1.018-0.918 1.018zM29.834 11.323c-0.561 0-0.919 0.461-0.919 1.022s0.358 1.018 0.919 1.018c0.552 0 0.918-0.457 0.918-1.018s-0.365-1.022-0.918-1.022zM29.772 13.737c-0.972 0-1.62-0.544-1.62-1.358 0-0.831 0.723-1.42 1.753-1.42 0.968 0 1.616 0.552 1.616 1.37 0 0.831-0.71 1.408-1.749 1.408zM29.834 11.323c-0.561 0-0.919 0.461-0.919 1.022s0.358 1.018 0.919 1.018c0.552 0 0.918-0.457 0.918-1.018s-0.365-1.022-0.918-1.022z"></path>
<path fill="#333081" style="fill: var(--color6, #333081)" d="M31.276 14.642c-0.104 0.088-0.183 0.158-0.183 0.158-0.212 0.191-0.377 0.312-0.731 0.312h-1.803c0.1-0.055 0.212-0.145 0.307-0.225 0.1-0.092 0.175-0.166 0.175-0.166 0.12-0.125 0.37-0.298 0.677-0.298h1.882c-0.104 0.049-0.224 0.141-0.324 0.22z"></path>
<path fill="#93c4b9" style="fill: var(--color7, #93c4b9)" d="M0.939 15.257v0.048h4.815c0.24 0 0.433 0.194 0.433 0.433v4.814c-0 0.239-0.194 0.433-0.433 0.433h-4.815c-0.239-0-0.433-0.194-0.433-0.433v-4.814c0-0.239 0.194-0.433 0.433-0.433v-0.096c-0.292 0-0.529 0.237-0.529 0.529v4.814c0 0.292 0.237 0.529 0.529 0.529h4.815c0.293 0 0.53-0.237 0.53-0.529v-4.814c-0.001-0.293-0.237-0.529-0.53-0.529h-4.815v0.048z"></path>
<path fill="#333081" style="fill: var(--color6, #333081)" d="M31.221 17.683l-1.063 2.628c-0.208 0.52-0.572 0.861-1.156 0.861-0.347 0-0.589-0.075-0.786-0.162l0.202-0.705c0.104 0.040 0.278 0.087 0.404 0.087 0.231 0 0.37-0.11 0.439-0.283l0.086-0.208-1.022-2.218c-0.058-0.127-0.098-0.248-0.179-0.294h0.965c0.162 0 0.22 0.058 0.259 0.179l0.463 1.317 0.41-1.311c0.029-0.099 0.086-0.185 0.26-0.185h0.895c-0.081 0.046-0.127 0.167-0.179 0.294z"></path>
<path fill="#333081" style="fill: var(--color6, #333081)" d="M27.263 20.149c-0.838 0-1.456-0.508-1.456-1.386 0-0.86 0.537-1.444 1.456-1.444 0.237 0 0.416 0.046 0.566 0.098 0.144 0.046 0.214 0.127 0.225 0.26l0.064 0.67c-0.214-0.127-0.462-0.208-0.705-0.208-0.3 0-0.578 0.168-0.578 0.624 0 0.427 0.294 0.56 0.612 0.56 0.3 0 0.491-0.069 0.612-0.116l0.231 0.763c-0.312 0.127-0.653 0.179-1.028 0.179z"></path>
<path fill="#333081" style="fill: var(--color6, #333081)" d="M24.895 20.080c-0.162 0-0.243-0.029-0.283-0.214-0.104 0.127-0.364 0.283-0.705 0.283-0.549 0-0.901-0.329-0.901-0.837 0-0.682 0.566-0.913 1.167-0.913 0.127 0 0.312 0.011 0.41 0.029v-0.11c0-0.202-0.145-0.318-0.48-0.318-0.248 0-0.526 0.064-0.739 0.156l-0.098-0.3c-0.029-0.081-0.058-0.156-0.058-0.22 0-0.075 0.046-0.15 0.185-0.197 0.185-0.063 0.538-0.121 0.919-0.121 0.901 0 1.248 0.41 1.248 1.040v1.721h-0.664zM24.583 19c-0.098-0.017-0.226-0.029-0.306-0.029-0.266 0-0.364 0.162-0.364 0.312 0 0.156 0.11 0.26 0.295 0.26 0.173 0 0.3-0.081 0.375-0.138v-0.405z"></path>
<path fill="#333081" style="fill: var(--color6, #333081)" d="M21.995 20.079c-0.11 0-0.22-0.058-0.22-0.196v-1.461c0-0.202-0.093-0.283-0.254-0.283-0.132 0-0.283 0.098-0.352 0.197v1.744h-0.774c-0.11 0-0.22-0.058-0.22-0.196v-1.461c0-0.202-0.093-0.283-0.254-0.283-0.133 0-0.283 0.098-0.352 0.197v1.744h-0.774c-0.109 0-0.219-0.058-0.219-0.196v-1.698c0-0.329-0.046-0.601-0.145-0.797h0.711c0.196 0 0.277 0.069 0.312 0.277 0.197-0.26 0.52-0.347 0.763-0.347 0.346 0 0.63 0.133 0.78 0.387 0.26-0.323 0.589-0.387 0.826-0.387 0.578 0 0.959 0.364 0.959 1.057v1.704h-0.786z"></path>
<path fill="#333081" style="fill: var(--color6, #333081)" d="M17.86 18.22c-0.237 0-0.37 0.098-0.439 0.19v1.67h-0.78c-0.104 0-0.214-0.058-0.214-0.197v-1.698c0-0.329-0.046-0.601-0.145-0.797h0.728c0.196 0 0.289 0.069 0.312 0.306 0.11-0.179 0.364-0.341 0.583-0.341 0.162 0 0.277 0.058 0.289 0.225l0.040 0.716c-0.098-0.041-0.266-0.075-0.376-0.075z"></path>
<path fill="#333081" style="fill: var(--color6, #333081)" d="M15.416 20.080c-0.162 0-0.242-0.029-0.283-0.214-0.104 0.127-0.364 0.283-0.705 0.283-0.549 0-0.901-0.329-0.901-0.837 0-0.682 0.566-0.913 1.167-0.913 0.127 0 0.312 0.011 0.41 0.029v-0.11c0-0.202-0.145-0.318-0.48-0.318-0.248 0-0.526 0.064-0.739 0.156l-0.098-0.3c-0.029-0.081-0.058-0.156-0.058-0.22 0-0.075 0.046-0.15 0.185-0.197 0.185-0.063 0.537-0.121 0.919-0.121 0.901 0 1.248 0.41 1.248 1.040v1.721h-0.664zM15.105 19c-0.098-0.017-0.226-0.029-0.306-0.029-0.266 0-0.364 0.162-0.364 0.312 0 0.156 0.11 0.26 0.295 0.26 0.173 0 0.3-0.081 0.376-0.138v-0.405z"></path>
<path fill="#333081" style="fill: var(--color6, #333081)" d="M12.517 20.080c-0.11 0-0.22-0.058-0.22-0.197v-1.45c0-0.214-0.104-0.295-0.271-0.295-0.133 0-0.277 0.093-0.37 0.197v1.744h-0.774c-0.11 0-0.22-0.058-0.22-0.197v-3.292c0-0.185-0.046-0.312-0.139-0.468l0.508-0.040c0.121-0.012 0.266-0.023 0.404-0.023 0.11 0 0.22 0.064 0.22 0.202v1.282c0.162-0.138 0.399-0.225 0.67-0.225 0.607 0 0.976 0.364 0.976 1.057v1.704h-0.785z"></path>
<path fill="#333081" style="fill: var(--color6, #333081)" d="M9.917 18.37c-0.272 0.202-0.607 0.294-1.155 0.294-0.087 0-0.173-0.006-0.289-0.012v1.427h-0.763c-0.11 0-0.22-0.064-0.22-0.202v-3.2c0-0.225-0.052-0.404-0.133-0.56h1.566c0.815 0 1.467 0.306 1.467 1.213-0 0.456-0.167 0.814-0.474 1.040zM8.865 16.897h-0.393v0.988c0.081 0.006 0.19 0.012 0.346 0.012 0.41 0 0.555-0.22 0.555-0.508-0-0.324-0.162-0.491-0.508-0.491z"></path>
<path fill="#93c4b9" style="fill: var(--color7, #93c4b9)" d="M5.176 17.48h-1.17v-1.139c0-0.106-0.086-0.193-0.193-0.193h-0.945c-0.107 0-0.193 0.086-0.193 0.193v1.139h-1.17c-0.089 0-0.161 0.072-0.161 0.162v1.007c0 0.089 0.073 0.161 0.161 0.161h1.17v1.139c0 0.106 0.086 0.193 0.193 0.193h0.945c0.107 0 0.193-0.087 0.193-0.193v-1.139h1.17c0.090 0 0.162-0.072 0.162-0.161v-1.007c0-0.089-0.072-0.162-0.162-0.162z"></path>
</symbol>
<symbol id="Morrisons" viewBox="0 0 32 32">
<path fill="#00563f" style="fill: var(--color8, #00563f)" d="M12.209 24.246c0.246 0 0.443-0.123 0.443-0.369v0c0-0.197-0.123-0.295-0.369-0.345-0.197-0.049-0.246-0.074-0.246-0.148v0c0-0.049 0.049-0.098 0.148-0.098s0.197 0.049 0.295 0.123l0.123-0.197c-0.123-0.098-0.271-0.148-0.443-0.148-0.246 0-0.418 0.148-0.418 0.345v0c0 0.246 0.148 0.295 0.394 0.369 0.197 0.049 0.246 0.074 0.246 0.148v0c0 0.074-0.074 0.123-0.172 0.123-0.123 0-0.246-0.049-0.345-0.148l-0.148 0.172c0.123 0.123 0.32 0.172 0.492 0.172zM12.825 23.237h0.271v-0.222h-0.271v0.222zM12.825 24.222h0.246v-0.911h-0.246v0.911zM13.317 24.222h0.246v-0.517c0-0.123 0.074-0.172 0.172-0.172s0.148 0.074 0.148 0.172v0.517h0.246v-0.591c0-0.197-0.123-0.345-0.295-0.345-0.123 0-0.197 0.074-0.271 0.148v-0.123h-0.246v0.911zM14.769 24.246c0.172 0 0.271-0.074 0.369-0.172l-0.148-0.148c-0.074 0.049-0.123 0.098-0.197 0.098-0.148 0-0.222-0.123-0.222-0.246v0c0-0.123 0.098-0.246 0.222-0.246 0.098 0 0.148 0.049 0.197 0.098l0.148-0.172c-0.074-0.098-0.197-0.148-0.369-0.148-0.271 0-0.468 0.222-0.468 0.468v0c0 0.271 0.197 0.468 0.468 0.468zM15.705 24.246c0.172 0 0.295-0.074 0.369-0.172l-0.148-0.123c-0.074 0.074-0.123 0.098-0.222 0.098-0.123 0-0.197-0.049-0.222-0.172h0.64c0-0.025 0-0.049 0-0.074 0-0.246-0.148-0.492-0.443-0.492-0.271 0-0.443 0.222-0.443 0.468v0c0 0.295 0.197 0.468 0.468 0.468zM15.483 23.705c0.025-0.123 0.098-0.197 0.197-0.197s0.172 0.074 0.197 0.197h-0.394zM16.788 24.222h0.246v-1.182h-0.172l-0.32 0.098 0.049 0.222 0.197-0.049v0.911zM17.723 24.246c0.271 0 0.468-0.123 0.468-0.345v0c0-0.148-0.074-0.222-0.197-0.271 0.098-0.049 0.148-0.123 0.148-0.246v0c0-0.172-0.172-0.32-0.418-0.32s-0.418 0.148-0.418 0.32v0c0 0.123 0.049 0.197 0.148 0.246-0.123 0.049-0.197 0.148-0.197 0.295v0c0 0.197 0.197 0.32 0.468 0.32zM17.723 23.532c-0.098 0-0.172-0.074-0.172-0.148v0c0-0.074 0.074-0.148 0.172-0.148s0.172 0.074 0.172 0.148v0c0 0.098-0.074 0.148-0.172 0.148zM17.723 24.025c-0.123 0-0.197-0.074-0.197-0.148v0c0-0.098 0.074-0.148 0.197-0.148s0.197 0.049 0.197 0.148v0c0 0.098-0.074 0.148-0.197 0.148zM18.732 24.246c0.345 0 0.517-0.271 0.517-0.64v0c0-0.222-0.049-0.369-0.148-0.443-0.098-0.098-0.172-0.123-0.345-0.123-0.271 0-0.443 0.172-0.443 0.418v0c0 0.246 0.172 0.394 0.418 0.394 0.098 0 0.172-0.025 0.246-0.074-0.025 0.148-0.098 0.271-0.246 0.271-0.098 0-0.172-0.025-0.246-0.098l-0.148 0.197c0.123 0.049 0.222 0.098 0.394 0.098zM18.782 23.606c-0.123 0-0.197-0.074-0.197-0.172v0c0-0.098 0.074-0.172 0.197-0.172s0.197 0.074 0.197 0.172v0c0.025 0.098-0.074 0.172-0.197 0.172zM19.84 24.246c0.345 0 0.517-0.271 0.517-0.64v0c0-0.222-0.049-0.369-0.148-0.443-0.098-0.098-0.172-0.123-0.345-0.123-0.271 0-0.443 0.172-0.443 0.418v0c0 0.246 0.172 0.394 0.418 0.394 0.098 0 0.172-0.025 0.246-0.074-0.025 0.148-0.098 0.271-0.246 0.271-0.098 0-0.172-0.025-0.246-0.098l-0.148 0.197c0.098 0.049 0.222 0.098 0.394 0.098zM19.889 23.606c-0.123 0-0.197-0.074-0.197-0.172v0c0-0.098 0.074-0.172 0.197-0.172s0.197 0.074 0.197 0.172v0c0 0.098-0.074 0.172-0.197 0.172z"></path>
<path fill="#00563f" style="fill: var(--color8, #00563f)" d="M16.689 17.009c0 0.369-0.295 0.665-0.665 0.665s-0.665-0.295-0.665-0.665c0-0.369 0.295-0.665 0.665-0.665 0.369-0.025 0.665 0.295 0.665 0.665zM30.843 19.692c-0.049-0.025-0.074-0.025-0.123-0.049-0.369-0.123-0.591-0.197-0.591-0.369v-0.025c0-0.148 0.172-0.246 0.369-0.246 0.246 0 0.492 0.074 0.862 0.271v0c0 0 0.025 0 0.025 0 0.025 0 0.025 0 0.049-0.025l0.394-0.689c0 0 0-0.025 0-0.025 0-0.025 0-0.025-0.025-0.049-0.418-0.222-0.812-0.345-1.28-0.345-0.886 0-1.477 0.443-1.477 1.157v0.025c0 0.714 0.566 0.985 1.182 1.157 0.049 0.025 0.098 0.025 0.148 0.049 0.394 0.123 0.542 0.197 0.542 0.369v0.025c-0.025 0.148-0.148 0.222-0.394 0.222-0.369 0-0.689-0.123-1.108-0.394v0c0 0-0.025 0-0.025 0-0.025 0-0.025 0-0.049 0.025l-0.418 0.665c0 0 0 0.025 0 0.025 0 0.025 0 0.025 0.025 0.049 0.492 0.345 0.96 0.542 1.502 0.542 0.985 0 1.551-0.418 1.551-1.182v-0.025c0.025-0.665-0.566-0.96-1.157-1.157zM20.135 20.849v0c0 0.763-0.591 1.206-1.551 1.206-0.566 0-1.009-0.197-1.502-0.542-0.025 0-0.025-0.025-0.025-0.049 0 0 0-0.025 0-0.025l0.418-0.665c0-0.025 0.025-0.025 0.049-0.025 0 0 0.025 0 0.025 0v0c0.418 0.271 0.714 0.394 1.108 0.394 0.246 0 0.394-0.074 0.394-0.222v-0.025c0-0.172-0.172-0.271-0.542-0.369-0.049-0.025-0.098-0.025-0.148-0.049-0.64-0.172-1.182-0.443-1.182-1.157v0c0-0.714 0.566-1.157 1.477-1.157 0.443 0 0.862 0.123 1.28 0.345 0.025 0 0.025 0.025 0.025 0.049 0 0 0 0.025 0 0.025l-0.394 0.689c0 0.025-0.025 0.025-0.049 0.025 0 0-0.025 0-0.025 0v0c-0.369-0.172-0.591-0.271-0.862-0.271-0.222 0-0.369 0.098-0.369 0.246v0.025c0 0.172 0.222 0.246 0.591 0.369 0.049 0.025 0.074 0.025 0.123 0.049 0.566 0.148 1.157 0.443 1.157 1.132zM13.785 22.006h-0.985c-0.025 0-0.049-0.025-0.049-0.049v-3.594c0-0.025 0.025-0.049 0.049-0.049h0.935c0.025 0 0.049 0.025 0.049 0.049v0.443c0.246-0.345 0.615-0.542 0.985-0.542 0.049 0 0.098 0 0.148 0 0.025 0 0.049 0.025 0.049 0.049v0.96c0 0.025 0 0.025-0.025 0.049 0 0-0.025 0.025-0.049 0-0.025 0-0.098 0-0.172 0-0.32 0-0.689 0.172-0.837 0.665-0.025 0.148-0.049 0.32-0.049 0.517v1.428c0 0.049-0.025 0.074-0.049 0.074zM11.102 21.957v-1.428c0-0.222 0.025-0.394 0.074-0.542 0.148-0.492 0.542-0.665 0.837-0.665 0.074 0 0.148 0 0.172 0s0.025 0 0.049 0c0 0 0.025-0.025 0.025-0.049v-0.96c0-0.025-0.025-0.049-0.049-0.049s-0.074 0-0.148 0c-0.394 0-0.763 0.197-0.985 0.542v-0.443c0-0.025-0.025-0.049-0.049-0.049h-0.935c-0.025 0-0.049 0.025-0.049 0.049v3.594c0 0.025 0.025 0.049 0.049 0.049h0.985c0.025 0 0.025-0.025 0.025-0.049zM4.948 22.006h-0.985c-0.025 0-0.049-0.025-0.049-0.049 0-1.132-0.098-2.412-0.123-2.806-0.345 0.468-0.689 1.108-0.96 1.723 0 0.025-0.025 0.025-0.049 0.025h-0.566c-0.025 0-0.049 0-0.049-0.025-0.271-0.615-0.591-1.255-0.96-1.723-0.025 0.394-0.123 1.674-0.123 2.806 0 0.025-0.025 0.049-0.049 0.049h-0.985c-0.025 0-0.049-0.025-0.049-0.049 0-1.526 0.123-3.545 0.369-4.578 0-0.025 0.025-0.049 0.049-0.049h0.788c0.025 0 0.025 0 0.049 0.025 0.517 0.566 0.935 1.206 1.255 1.822 0.32-0.64 0.738-1.255 1.255-1.822 0 0 0.025-0.025 0.049-0.025h0.788c0.025 0 0.049 0.025 0.049 0.049 0.246 1.034 0.369 3.052 0.369 4.578-0.025 0.025-0.049 0.049-0.074 0.049zM28.48 21.957v-2.289c0-0.935-0.443-1.428-1.305-1.428-0.566 0-0.935 0.271-1.132 0.492v-0.369c0-0.025-0.025-0.049-0.049-0.049h-0.935c-0.025 0-0.049 0.025-0.049 0.049v3.594c0 0.025 0.025 0.049 0.049 0.049h0.985c0.025 0 0.049-0.025 0.049-0.049v-1.649c0-0.172 0.025-0.32 0.049-0.443 0.123-0.394 0.443-0.64 0.837-0.64 0.32 0 0.443 0.148 0.443 0.591v2.117c0 0.025 0.025 0.049 0.049 0.049h0.96c0.049 0.025 0.049 0 0.049-0.025zM22.523 19.175c-0.542 0-0.935 0.418-0.935 0.985s0.394 0.985 0.935 0.985c0.517 0 0.911-0.418 0.911-0.985s-0.394-0.985-0.911-0.985zM22.523 22.080c-1.157 0-2.018-0.837-2.018-1.92 0-1.108 0.862-1.92 2.018-1.92s2.018 0.837 2.018 1.92c0 1.083-0.862 1.92-2.018 1.92zM16.566 21.957v-3.594c0-0.025-0.025-0.049-0.049-0.049h-0.985c-0.025 0-0.049 0.025-0.049 0.049v3.594c0 0.025 0.025 0.049 0.049 0.049h0.985c0.025 0 0.049-0.025 0.049-0.049zM7.508 19.175c-0.542 0-0.935 0.418-0.935 0.985s0.394 0.985 0.935 0.985c0.517 0 0.911-0.418 0.911-0.985s-0.394-0.985-0.911-0.985zM7.508 22.080c-1.157 0-2.018-0.837-2.018-1.92 0-1.108 0.862-1.92 2.018-1.92s2.018 0.837 2.018 1.92c-0.025 1.083-0.886 1.92-2.018 1.92z"></path>
<path fill="#ffc20e" style="fill: var(--color9, #ffc20e)" d="M19.151 16.788c-0.886 0.32-1.674-0.271-1.674-0.271s0.222-0.96 1.108-1.28c0.886-0.32 1.674 0.271 1.674 0.271s-0.222 0.935-1.108 1.28zM21.489 12.308c0 0-0.862-0.443-1.698 0.025-0.812 0.468-0.862 1.452-0.862 1.452s0.862 0.443 1.698-0.025c0.812-0.468 0.862-1.452 0.862-1.452zM17.772 14.474c-0.394 0.862-1.354 0.985-1.354 0.985s-0.517-0.812-0.123-1.674c0.394-0.862 1.354-0.985 1.354-0.985s0.517 0.812 0.123 1.674zM11.84 15.508c0 0 0.222 0.96 1.108 1.28s1.674-0.271 1.674-0.271c0 0-0.222-0.96-1.108-1.28-0.911-0.32-1.674 0.271-1.674 0.271zM12.258 12.332c0.812 0.468 0.862 1.452 0.862 1.452s-0.862 0.443-1.698-0.025c-0.812-0.468-0.862-1.452-0.862-1.452s0.886-0.443 1.698 0.025zM13.342 10.757c0 0-0.197 0.96 0.468 1.625s1.625 0.468 1.625 0.468c0 0 0.197-0.96-0.468-1.625s-1.625-0.468-1.625-0.468zM16.837 9.329c0 0.96-0.812 1.477-0.812 1.477s-0.812-0.517-0.812-1.477c0-0.96 0.812-1.477 0.812-1.477-0.025 0 0.812 0.517 0.812 1.477zM18.462 11.446c0 0.394-0.32 0.689-0.689 0.689-0.394 0-0.689-0.32-0.689-0.689s0.32-0.689 0.689-0.689c0.369 0 0.689 0.295 0.689 0.689zM15.36 14.277c0 0.394-0.32 0.689-0.689 0.689s-0.689-0.32-0.689-0.689c0-0.394 0.32-0.689 0.689-0.689s0.689 0.32 0.689 0.689z"></path>
</symbol>
</defs>
</svg>
